<svg xmlns="http://www.w3.org/2000/svg" xmlns:xlink="http://www.w3.org/1999/xlink" version="1.1" id="Layer_1" x="0px" y="0px" width="90px" height="90px" viewBox="0 0 90 90" enable-background="new 0 0 90 90" xml:space="preserve">
<path d="M82.939,84.287c0.01-0.104,0.063-0.208,0.063-0.322V40.266c0-0.099-0.042-0.181-0.053-0.28  c-0.021-0.156-0.04-0.3-0.094-0.446c-0.051-0.155-0.113-0.29-0.195-0.424c-0.063-0.125-0.135-0.238-0.229-0.352  c-0.113-0.13-0.238-0.239-0.373-0.343c-0.063-0.052-0.104-0.124-0.186-0.176l-9.421-5.783V7.472c0-3.477-2.83-6.306-6.302-6.306  H23.853c-3.477,0-6.306,2.829-6.306,6.306v25.001l-9.42,5.771c-0.072,0.052-0.119,0.125-0.186,0.176  c-0.134,0.104-0.26,0.208-0.363,0.343c-0.103,0.114-0.175,0.228-0.249,0.362c-0.072,0.124-0.135,0.259-0.187,0.404  c-0.051,0.155-0.077,0.316-0.093,0.487c-0.01,0.083-0.051,0.155-0.051,0.249v43.699c0,0.104,0.046,0.188,0.057,0.291  c0.025,0.177,0.046,0.353,0.108,0.529c0.052,0.135,0.13,0.248,0.202,0.372c0.067,0.115,0.099,0.229,0.181,0.332  c0.027,0.031,0.067,0.053,0.094,0.07c0.093,0.104,0.202,0.168,0.31,0.252c0.145,0.112,0.28,0.228,0.441,0.299  c0.083,0.041,0.176,0.052,0.264,0.072c0.208,0.072,0.419,0.125,0.642,0.135c0.021,0,0.042,0.012,0.063,0.012h71.258  c0,0,0.01,0.01,0.021,0.01c0.155,0,0.311-0.072,0.465-0.104c0.155-0.03,0.322-0.041,0.467-0.104  c0.104-0.042,0.178-0.125,0.271-0.177c0.197-0.113,0.374-0.238,0.529-0.403c0.021-0.021,0.062-0.031,0.082-0.063  c0.073-0.094,0.104-0.197,0.155-0.301c0.093-0.135,0.177-0.261,0.238-0.416C82.896,84.607,82.919,84.453,82.939,84.287z   M11.729,46.225L32.76,61.271L11.729,78.898V46.225z M44.999,57.188L74.12,81.604H15.879L44.999,57.188z M57.238,61.271  l21.027-15.037v32.664L57.238,61.271z M23.853,5.535H66.15c1.067,0,1.938,0.865,1.938,1.938v40.212L53.486,58.131l-5.563-4.674  c2.072-0.693,3.307-2.166,3.307-4.486c0-2.632-1.494-3.751-4.106-4.912l-2.322-1.025c-1.492-0.674-1.875-1.058-1.875-1.856  c0-1.114,0.912-1.451,2.591-1.451c0.828,0,1.605,0.021,2.387,0.094l0.228,1.243h2.519V37.23c-0.623-0.156-2.32-0.425-3.979-0.518  V34.37h-3.279v2.456c-3.036,0.404-4.622,1.834-4.622,4.415c0,2.725,1.611,3.668,3.927,4.756l2.456,1.16  c1.45,0.694,1.896,1.067,1.896,1.948c0,1.182-0.868,1.74-2.632,1.74c-0.958,0-1.699-0.021-2.451-0.052l-0.228-1.337h-2.523v4  c0.642,0.115,1.534,0.229,2.477,0.322l-5.187,4.352L21.91,47.686V7.472C21.91,6.4,22.786,5.535,23.853,5.535z"/>
<rect x="28.184" y="12.183" width="33.634" height="3.451"/>
<rect x="28.184" y="18.369" width="33.634" height="3.451"/>
<rect x="28.184" y="24.183" width="33.634" height="3.451"/>
</svg>