<svg xmlns="http://www.w3.org/2000/svg" xmlns:xlink="http://www.w3.org/1999/xlink" version="1.1" x="0px" y="0px" width="100px" height="100px" viewBox="0 0 100 100" enable-background="new 0 0 100 100" xml:space="preserve">
<g id="Captions">
</g>
<g id="Your_Icon">
	<path fill="#000000" d="M6.498,62H18v27.23c0,3.557,2.414,6.77,6.005,6.77h51.016C78.611,96,82,92.787,82,89.23V62h11.365   c0.008,0,0.015,0,0.02,0c3.591,0,6.502-2.801,6.502-6.359c0-1.873-0.808-3.479-2.096-4.656L54.647,5.95   c-1.229-1.281-2.933-2.033-4.716-2.033c-1.782,0-3.062,0.672-4.29,1.953L32,20.515V11.37c0-3.396-3.337-6.15-7-6.15   s-7,2.753-7,6.15v22.957L1.841,51.089c-1.789,1.866-2.313,4.735-1.286,7.101C1.58,60.555,3.899,62,6.498,62z M49.932,21.473   L78.227,51h-3.206C71.431,51,68,52.179,68,55.735V83H32V55.735C32,52.179,27.596,51,24.005,51h-2.367L49.932,21.473z"/>
</g>
</svg>