<svg xmlns="http://www.w3.org/2000/svg" xmlns:xlink="http://www.w3.org/1999/xlink" version="1.1" id="Layer_1" x="0px" y="0px" width="100px" height="100px" viewBox="0 0 100 100" enable-background="new 0 0 100 100" xml:space="preserve">
<path d="M50,11.026c-21.525,0-38.974,17.449-38.974,38.974c0,12.283,5.688,23.232,14.567,30.376l-14.567,8.599H50  c21.525,0,38.975-17.449,38.975-38.975C88.975,28.475,71.523,11.026,50,11.026z M49.999,85.507H23.961l8.242-4.786  C21.617,74.574,14.493,63.123,14.493,50c0-19.61,15.896-35.506,35.506-35.506c19.61,0,35.507,15.896,35.507,35.506  C85.506,69.609,69.609,85.507,49.999,85.507z"/>
<g>
	<path d="M63.432,66.084c0.02-0.503-0.254-0.645-0.437-0.844c-0.208-0.229-0.656-0.67-0.964-1.116   c-0.342-0.495-0.729-1.31-0.918-1.864c-0.475-1.379-1.008-3.516-1.012-5.671c-0.002-1.907,0.338-3.868,0.502-5.153   c0.183-1.404,0.42-4.208,0.379-5.632c-0.032-1.136-0.062-3.05-0.916-4.459c-0.019-0.037-0.043-0.073-0.062-0.108   c-0.02-0.029-0.031-0.062-0.053-0.091c0-0.001,0-0.001,0-0.001c-0.631-1.117-1.762-2.178-3.237-3.014   c0.05-0.12,0.104-0.233,0.14-0.359c0.479-1.741-0.545-3.541-2.287-4.019c-1.74-0.478-3.541,0.546-4.019,2.288   c-0.034,0.126-0.046,0.253-0.064,0.379c-1.694-0.033-3.209,0.301-4.321,0.939c0,0,0,0-0.001,0.001   c-0.032,0.015-0.06,0.036-0.092,0.052c-0.035,0.021-0.075,0.039-0.109,0.061c-1.455,0.775-2.456,2.406-3.063,3.367   c-0.763,1.203-1.99,3.735-2.552,5.036c-0.513,1.188-1.223,3.049-2.199,4.688c-1.104,1.853-2.653,3.416-3.764,4.359   c-0.447,0.38-1.195,0.885-1.741,1.135c-0.493,0.229-1.104,0.379-1.398,0.469c-0.259,0.078-0.565,0.061-0.805,0.502   c-0.252,0.467-0.641,1.925-0.647,1.949c0,0,0,0-0.001,0.002c-0.412,1.5,6.688,4.754,15.856,7.271   c9.169,2.519,16.935,3.343,17.346,1.844c0.001-0.002,0.001-0.002,0.001-0.003C62.999,68.064,63.409,66.611,63.432,66.084z    M52.132,36.474c0.237-0.866,1.134-1.376,1.999-1.138c0.867,0.238,1.377,1.133,1.141,2c-0.01,0.032-0.024,0.059-0.035,0.09   c-0.49-0.199-0.996-0.383-1.532-0.53s-1.065-0.248-1.588-0.327C52.122,36.537,52.123,36.506,52.132,36.474z M46.069,64.704   c-7.798-2.142-13.934-4.552-13.705-5.388s6.737,0.223,14.535,2.363c7.798,2.141,13.933,4.553,13.705,5.389   C60.374,67.904,53.867,66.846,46.069,64.704z"/>
	<path d="M46.889,62.117c-1.641-0.451-2.982-0.771-2.998-0.715c-0.24,0.873,0.895,1.947,2.536,2.397   c1.641,0.45,3.165,0.106,3.405-0.768C49.847,62.977,48.529,62.566,46.889,62.117z"/>
</g>
</svg>