<svg xmlns="http://www.w3.org/2000/svg" xmlns:xlink="http://www.w3.org/1999/xlink" version="1.1" id="Capa_1" x="0px" y="0px" width="100px" height="100px" viewBox="0 0 100 100" enable-background="new 0 0 100 100" xml:space="preserve">
<path d="M44.643,56.36c-0.175-0.092-0.348-0.183-0.477-0.262c-0.866-0.527-1.691-1.79-1.792-2.89  c-0.019-0.224-0.033-0.661-0.033-0.83c0.139-0.212,0.456-0.637,0.654-0.868c0.526-0.614,0.837-0.878,1.394-1.766  c-0.472-0.645-0.953-1.36-1.425-2.145c-0.64,1.121-1.316,2.102-1.913,2.8c-0.099,0.116-0.723,0.627-0.889,1.209  c-0.166,0.581-0.069,1.709-0.057,1.836c0.138,1.496,1.005,3.099,2.271,4.264c0.761-0.354,1.383-0.669,1.805-0.926  C44.331,56.688,44.486,56.542,44.643,56.36z M20.29,79.481c-9.057-1.011-12.318-2.743-12.912-3.285  c0.126-1.994,0.493-4.785,1.086-6.561c0.79-2.372,1.703-3.387,2.922-4.256c0.613-0.438,3.888-1.747,6.777-2.901  c3.674-1.468,6.018-2.987,7.507-3.894c1.647-1.002,2.709-3.397,2.871-5.142c0.004-0.05,0.111-1.241-0.059-1.836  c-0.093-0.325-0.255-0.652-0.482-0.974l-0.097-0.119c-0.145-0.158-0.541-0.613-0.574-0.65c-1.387-1.623-3.225-4.748-3.981-7.775  c-1.048-4.198-1.877-12.669,1.673-17.784c1.939-2.795,5.005-4.283,9.114-4.424l0.145-0.008l0.227,0.008  c1.984,0.068,4.497,0.759,5.986,1.45c0.205-0.784,0.445-1.558,0.734-2.319c-1.417-0.631-3.779-1.343-5.543-1.502v-0.1l-1.402,0.017  l-0.175-0.008L32.96,17.43v0.078c-4.294,0.389-7.577,2.182-9.767,5.34c-5.008,7.217-2.362,18.595-2.045,19.868  c0.859,3.44,2.88,6.895,4.531,8.825c0.08,0.093,0.374,0.429,0.541,0.615c0.046,0.069,0.066,0.113,0.071,0.115  c0.018,0.177,0.003,0.687-0.017,0.93c-0.103,1.105-0.864,2.735-1.73,3.262c-1.331,0.811-3.754,2.362-7.177,3.729  c-3.975,1.589-6.452,2.592-7.245,3.158c-1.847,1.318-2.95,2.902-3.804,5.465c-0.886,2.655-1.228,7.442-1.242,7.707l-0.014,0.246  L5.14,77c0.327,0.987,3.054,3.631,14.966,4.931C20.14,81.389,20.2,80.523,20.29,79.481z M94.938,83.693l-0.484,0.448  c-1.391,1.332-5.623,5.385-35.543,5.385c-20.211,0-32.183-1.797-35.584-5.34l-0.447-0.431l0.035-0.515  c0.118-1.787,0.58-7.821,1.525-10.464c1.171-3.281,2.607-4.751,4.404-5.949c0.777-0.518,3.689-2.198,7.779-3.725  c4.563-1.705,8.051-3.501,10.173-4.708c1.544-0.878,3.663-5.261,3.058-6.967c-0.144-0.406-0.67-1.016-1.166-1.559  c-0.005-0.006-0.011-0.012-0.015-0.017c-0.01-0.01-0.02-0.021-0.029-0.031c-1.944-2.124-4.519-6.215-5.579-10.176  c-1.45-5.421-2.568-16.393,2.436-23.134c2.831-3.811,7.246-5.838,13.122-6.026l0.161-0.01l0.421,0.01  c5.875,0.187,10.29,2.214,13.118,6.025c5.005,6.738,3.887,17.713,2.439,23.135c-1.061,3.964-3.644,8.061-5.594,10.191  c-1.057,1.156-1.196,1.473-1.201,1.621c-0.039,1.441,1.28,5.925,3.064,6.939c2.119,1.207,5.604,3.002,10.172,4.708  c4.087,1.526,7,3.205,7.778,3.725c1.797,1.198,3.234,2.669,4.404,5.949c0.938,2.625,1.4,8.616,1.52,10.39L94.938,83.693z"/>
</svg>